<svg width="97" height="109" viewBox="0 0 97 109" fill="none" xmlns="http://www.w3.org/2000/svg">
<path fill-rule="evenodd" clip-rule="evenodd" d="M9 18C9 8.05888 17.0589 0 27 0H71C80.9411 0 89 8.05887 89 18V62C89 71.9411 80.9411 80 71 80H27C17.0589 80 9 71.9411 9 62V18ZM69 32.8C69 43.8457 60.0457 52.8 49 52.8C37.9543 52.8 29 43.8457 29 32.8C29 21.7543 37.9543 12.8 49 12.8C60.0457 12.8 69 21.7543 69 32.8ZM47.2322 32.8388C46.2559 33.8151 46.2559 35.3981 47.2322 36.3744C48.2085 37.3507 49.7915 37.3507 50.7678 36.3744L61.3744 25.7678C62.3507 24.7915 62.3507 23.2085 61.3744 22.2322C60.3981 21.2559 58.8151 21.2559 57.8388 22.2322L47.2322 32.8388Z" fill="#37598D"/>
<rect x="29" y="33" width="40" height="22" fill="#37598D"/>
<path d="M6.19629 99.5596H2.90039L2.88281 97.5381H5.55469C6.03516 97.5381 6.41895 97.4854 6.70605 97.3799C6.99316 97.2686 7.20117 97.1074 7.33008 96.8965C7.46484 96.6855 7.53223 96.4219 7.53223 96.1055C7.53223 95.7422 7.46484 95.4492 7.33008 95.2266C7.19531 95.0039 6.98145 94.8428 6.68848 94.7432C6.40137 94.6377 6.0293 94.585 5.57227 94.585H4.06055V105H0.975586V92.2031H5.57227C6.36328 92.2031 7.06934 92.2764 7.69043 92.4229C8.31152 92.5635 8.83887 92.7803 9.27246 93.0732C9.71191 93.3662 10.0459 93.7354 10.2744 94.1807C10.5029 94.6201 10.6172 95.1387 10.6172 95.7363C10.6172 96.2578 10.5059 96.7471 10.2832 97.2041C10.0605 97.6611 9.68848 98.0332 9.16699 98.3203C8.65137 98.6016 7.94531 98.748 7.04883 98.7598L6.19629 99.5596ZM6.07324 105H2.15332L3.20801 102.627H6.07324C6.49512 102.627 6.83203 102.562 7.08398 102.434C7.3418 102.299 7.52637 102.123 7.6377 101.906C7.75488 101.684 7.81348 101.438 7.81348 101.168C7.81348 100.84 7.75781 100.556 7.64648 100.315C7.54102 100.075 7.37109 99.8906 7.13672 99.7617C6.90234 99.627 6.58887 99.5596 6.19629 99.5596H3.60352L3.62109 97.5381H6.72363L7.44434 98.3467C8.2998 98.3115 8.97656 98.4316 9.47461 98.707C9.97852 98.9824 10.3389 99.3457 10.5557 99.7969C10.7725 100.248 10.8809 100.72 10.8809 101.212C10.8809 102.05 10.6992 102.75 10.3359 103.312C9.97852 103.875 9.44238 104.297 8.72754 104.578C8.0127 104.859 7.12793 105 6.07324 105ZM23.4229 98.3467V98.8652C23.4229 99.8438 23.2852 100.723 23.0098 101.502C22.7402 102.275 22.3564 102.938 21.8584 103.488C21.3604 104.033 20.7715 104.452 20.0918 104.745C19.4121 105.032 18.6621 105.176 17.8418 105.176C17.0156 105.176 16.2598 105.032 15.5742 104.745C14.8945 104.452 14.3027 104.033 13.7988 103.488C13.3008 102.938 12.9141 102.275 12.6387 101.502C12.3691 100.723 12.2344 99.8438 12.2344 98.8652V98.3467C12.2344 97.3682 12.3691 96.4893 12.6387 95.71C12.9141 94.9307 13.2979 94.2686 13.79 93.7236C14.2881 93.1729 14.877 92.7539 15.5566 92.4668C16.2422 92.1738 16.998 92.0273 17.8242 92.0273C18.6445 92.0273 19.3945 92.1738 20.0742 92.4668C20.7598 92.7539 21.3516 93.1729 21.8496 93.7236C22.3477 94.2686 22.7344 94.9307 23.0098 95.71C23.2852 96.4893 23.4229 97.3682 23.4229 98.3467ZM20.2939 98.8652V98.3291C20.2939 97.6963 20.2383 97.1396 20.127 96.6592C20.0215 96.1729 19.8633 95.7656 19.6523 95.4375C19.4414 95.1094 19.1807 94.8633 18.8701 94.6992C18.5654 94.5293 18.2168 94.4443 17.8242 94.4443C17.4141 94.4443 17.0566 94.5293 16.752 94.6992C16.4473 94.8633 16.1924 95.1094 15.9873 95.4375C15.7822 95.7656 15.627 96.1729 15.5215 96.6592C15.4219 97.1396 15.3721 97.6963 15.3721 98.3291V98.8652C15.3721 99.4922 15.4219 100.049 15.5215 100.535C15.627 101.016 15.7822 101.423 15.9873 101.757C16.1982 102.091 16.4561 102.343 16.7607 102.513C17.0713 102.683 17.4316 102.768 17.8418 102.768C18.2344 102.768 18.583 102.683 18.8877 102.513C19.1924 102.343 19.4473 102.091 19.6523 101.757C19.8633 101.423 20.0215 101.016 20.127 100.535C20.2383 100.049 20.2939 99.4922 20.2939 98.8652ZM29.1797 105H26.3408L26.3584 102.627H29.1797C29.7656 102.627 30.2607 102.486 30.665 102.205C31.0752 101.924 31.3857 101.505 31.5967 100.948C31.8135 100.386 31.9219 99.6943 31.9219 98.874V98.3203C31.9219 97.7051 31.8604 97.166 31.7373 96.7031C31.6201 96.2344 31.4443 95.8447 31.21 95.5342C30.9756 95.2178 30.6826 94.9805 30.3311 94.8223C29.9854 94.6641 29.5869 94.585 29.1357 94.585H26.2881V92.2031H29.1357C30.0029 92.2031 30.7969 92.3525 31.5176 92.6514C32.2441 92.9443 32.8711 93.3662 33.3984 93.917C33.9316 94.4619 34.3418 95.1094 34.6289 95.8594C34.9219 96.6035 35.0684 97.4297 35.0684 98.3379V98.874C35.0684 99.7764 34.9219 100.603 34.6289 101.353C34.3418 102.103 33.9346 102.75 33.4072 103.295C32.8799 103.84 32.2559 104.262 31.5352 104.561C30.8203 104.854 30.0352 105 29.1797 105ZM28.1074 92.2031V105H25.0225V92.2031H28.1074ZM38.6104 92.2031L40.9658 97.7578L43.3301 92.2031H46.6523L42.5391 100.403V105H39.4014V100.403L35.2793 92.2031H38.6104ZM59.3525 100.667H62.4287C62.3877 101.558 62.1475 102.343 61.708 103.022C61.2686 103.702 60.6592 104.232 59.8799 104.613C59.1064 104.988 58.1924 105.176 57.1377 105.176C56.2822 105.176 55.5176 105.032 54.8438 104.745C54.1758 104.458 53.6074 104.045 53.1387 103.506C52.6758 102.967 52.3213 102.313 52.0752 101.546C51.835 100.778 51.7148 99.9141 51.7148 98.9531V98.2588C51.7148 97.2979 51.8408 96.4336 52.0928 95.666C52.3506 94.8926 52.7139 94.2363 53.1826 93.6973C53.6572 93.1523 54.2256 92.7363 54.8877 92.4492C55.5498 92.1621 56.2852 92.0186 57.0938 92.0186C58.207 92.0186 59.1475 92.2178 59.915 92.6162C60.6826 93.0146 61.2773 93.5625 61.6992 94.2598C62.1211 94.9512 62.3701 95.7393 62.4463 96.624H59.3701C59.3584 96.1436 59.2764 95.7422 59.124 95.4199C58.9717 95.0918 58.7314 94.8457 58.4033 94.6816C58.0752 94.5176 57.6387 94.4355 57.0938 94.4355C56.7129 94.4355 56.3818 94.5059 56.1006 94.6465C55.8193 94.7871 55.585 95.0098 55.3975 95.3145C55.21 95.6191 55.0693 96.0146 54.9756 96.501C54.8877 96.9814 54.8438 97.5615 54.8438 98.2412V98.9531C54.8438 99.6328 54.8848 100.213 54.9668 100.693C55.0488 101.174 55.1807 101.566 55.3623 101.871C55.5439 102.176 55.7783 102.401 56.0654 102.548C56.3584 102.688 56.7158 102.759 57.1377 102.759C57.6064 102.759 58.002 102.686 58.3242 102.539C58.6465 102.387 58.8955 102.158 59.0713 101.854C59.2471 101.543 59.3408 101.147 59.3525 100.667ZM69.3105 94.8926L66.1904 105H62.877L67.5791 92.2031H69.6797L69.3105 94.8926ZM71.8945 105L68.7656 94.8926L68.3613 92.2031H70.4883L75.2168 105H71.8945ZM71.7715 100.228V102.609H65.2061V100.228H71.7715ZM84.6123 102.627V105H78.1436V102.627H84.6123ZM79.2422 92.2031V105H76.1572V92.2031H79.2422ZM92.6279 100.667H95.7041C95.6631 101.558 95.4229 102.343 94.9834 103.022C94.5439 103.702 93.9346 104.232 93.1553 104.613C92.3818 104.988 91.4678 105.176 90.4131 105.176C89.5576 105.176 88.793 105.032 88.1191 104.745C87.4512 104.458 86.8828 104.045 86.4141 103.506C85.9512 102.967 85.5967 102.313 85.3506 101.546C85.1104 100.778 84.9902 99.9141 84.9902 98.9531V98.2588C84.9902 97.2979 85.1162 96.4336 85.3682 95.666C85.626 94.8926 85.9893 94.2363 86.458 93.6973C86.9326 93.1523 87.501 92.7363 88.1631 92.4492C88.8252 92.1621 89.5605 92.0186 90.3691 92.0186C91.4824 92.0186 92.4229 92.2178 93.1904 92.6162C93.958 93.0146 94.5527 93.5625 94.9746 94.2598C95.3965 94.9512 95.6455 95.7393 95.7217 96.624H92.6455C92.6338 96.1436 92.5518 95.7422 92.3994 95.4199C92.2471 95.0918 92.0068 94.8457 91.6787 94.6816C91.3506 94.5176 90.9141 94.4355 90.3691 94.4355C89.9883 94.4355 89.6572 94.5059 89.376 94.6465C89.0947 94.7871 88.8604 95.0098 88.6729 95.3145C88.4854 95.6191 88.3447 96.0146 88.251 96.501C88.1631 96.9814 88.1191 97.5615 88.1191 98.2412V98.9531C88.1191 99.6328 88.1602 100.213 88.2422 100.693C88.3242 101.174 88.4561 101.566 88.6377 101.871C88.8193 102.176 89.0537 102.401 89.3408 102.548C89.6338 102.688 89.9912 102.759 90.4131 102.759C90.8818 102.759 91.2773 102.686 91.5996 102.539C91.9219 102.387 92.1709 102.158 92.3467 101.854C92.5225 101.543 92.6162 101.147 92.6279 100.667Z" fill="#37598D"/>
</svg>
